<svg xmlns="http://www.w3.org/2000/svg" width="1200" height="675"><path style="stroke:none;fill-rule:nonzero;fill:#000;fill-opacity:1" d="M496.25 216.688c0 91.562.125 93.625 5.938 116.125 4.812 18.75 10.25 30.687 20.062 44.062 4.25 5.813 12.75 14.375 17 17.188 2.063 1.375 2.625 2.125 2.625 3.5v1.812h-9.188l-9.25-.063-24-24.937-24-25h-15.5l.25 47.938c.25 51.062.25 50.5 3.5 63 5 19.437 16.063 36 31.313 47.187 6.625 4.813 19.75 11.313 27.125 13.438 3.063.875 8.75 1.937 12.688 2.312l7.062.75v3.5h-30.813c-29.125 0-30.937.063-31.875 1.125-.937 1-1.062 3-1.062 15.375v14.188l2 2.5c1.625 2 4.813 3.937 16.375 9.937a8322.334 8322.334 0 0 1 29.75 15.563l15.313 8.062.125 22.438.125 22.375-22.063 15c-17.313 11.75-22.313 15.437-23.125 17.062-2.063 4.188-7.5 3.875 62.75 3.875h63.75l7.25-7.063c4-3.812 9-9.125 11.063-11.687 12.625-15.688 22.062-35 26.062-53.438 2.75-12.875 3.125-17.812 3.125-48.312 0-15.875.188-28.875.5-28.813.25 0 1.125.875 2 2 1.25 1.625 36.375 44.063 39.125 47.313.625.75-1.375 9.5-11.563 50.438L688.375 675h139.5l24.625-29.688 24.688-29.687 103.75.063h103.75l10.374 12.625c5.75 6.937 16.813 20.312 24.563 29.687l14.125 17H1200V372.812l-186.875.188-186.875.125v-1.5c0-.875 1.313-3.313 3-5.563 6.375-8.375 10.875-18.625 14.438-32.687 2.437-9.625 4.875-24.5 5.687-34.875.375-4.875.625-37.875.625-83.875V138.75h-15.938l-90.375 93.75h-141.5l-5.625-5.938c-3.062-3.25-23.312-24.375-45-46.875l-39.375-40.875-7.937-.062h-8Zm92.063 65.812c22.375 3.813 50.187 16.563 54.437 24.938 2.313 4.562 1.625 9.25-1.938 13.187-2.437 2.75-6 4.063-9.125 3.438-1.125-.25-4.5-1.563-7.625-2.938-7.812-3.5-26.25-9.5-33.75-11.063-3.437-.687-9.812-1.687-14.125-2.187-13.75-1.625-17.437-4.438-17.437-13.313.063-6.687 3.313-12 8-13.062.938-.188 2-.5 2.313-.625 1.25-.5 12.375.438 19.25 1.625Zm193 .063c5.125 2.812 7.625 10.937 5.312 17-2.063 5.437-5.188 7-16.813 8.312-15.187 1.75-30.687 5.938-46.687 12.688-8.75 3.75-10 4-13.125 3.187-7.313-2-10.375-10.875-6-17.5 2.188-3.25 6-6 14.75-10.563 12.125-6.312 25.563-10.812 39.063-13.187 13.312-2.313 19.187-2.313 23.5.063Zm-254.063 152.5c15.625 3 34.125 11.625 37.75 17.625 3.188 5.187-.5 12.312-6.313 12.312-1.437 0-4.937-1.063-8.375-2.438-12.375-5.187-23.312-8.125-34.75-9.437-3.187-.375-6.875-1.188-8.062-1.813-6.125-3.125-5.625-14 .75-17 3.188-1.5 8.563-1.312 19 .75Zm129.5-.688c4.375 2 6.375 8.25 4.25 13.313-1.5 3.687-3.5 4.437-16.313 6.125-7.25.937-18.562 4.187-28.375 8.062-8.937 3.625-11.562 3.875-14.375 1.563-3.562-3.063-4-8-1-11.938 4.75-6.25 25.688-15 41.563-17.375 8.188-1.188 11.125-1.188 14.25.25Zm0 0"/></svg>