<svg xmlns="http://www.w3.org/2000/svg" width="540" height="110"><path  d="M139.055 23.066c-.965 6.817-6.34 9.918-15.84 9.907h-12.64l4.23-20.266h12.894c9.617 0 12.114 4.824 11.356 10.36ZM133.102.961H98.914L88.73 50.109c-3.523 16.996-14.324 21.446-27.398 21.446-11.879 0-23.168-6.239-20.25-21.446.645-3.293.887-4.543 1.441-7.347H57.91c-.308 1.468-.87 3.925-1.605 7.347-1.094 5.211 1.183 8.504 6.996 8.504 5.797 0 8.781-3.113 9.86-8.504L83.366.961H47.484C28.238.96 22.437 5.773 18.97 22.613L7.449 77.961h69.442c17.109 0 26.406-9.828 28.836-21.664 2.367-11.399 2.378-11.399 2.378-11.399h16.934c17.152 0 27.477-7.207 29.906-21.832C157.207 9.441 147.36.961 133.102.961ZM8.27 98.715h1.386c2.031 0 3.895-.707 3.871-3.008-.011-1.867-1.3-2.238-2.675-2.238H9.336Zm-3.282-8.903h5.145c4.23 0 8.5.438 8.535 5.301.039 4.825-3.883 7.27-8.523 7.27H7.508l-1.387 6.754H.965ZM52.105 93.29c-3.996 0-5.617 4.628-5.605 7.897.027 2.43.953 4.45 3.64 4.45 3.985 0 5.606-4.617 5.594-7.86-.027-2.445-.953-4.488-3.629-4.488Zm-2.261 16.183c-6.285 0-8.625-3.926-8.64-7.887-.052-7.32 3.753-12.106 11.198-12.106 6.274 0 8.59 3.899 8.63 7.872.05 7.32-3.77 12.12-11.188 12.12ZM99.934 94.176c-.993-.45-2.356-.887-4.27-.887-2.031 0-3.691.293-3.691 1.852.027 2.738 7.523 1.722 7.547 7.601.027 5.328-4.899 6.73-9.383 6.73-2.008 0-4.297-.488-5.98-1.015l1.183-3.914c1.027.644 3.074 1.094 4.77 1.094 1.609 0 4.128-.309 4.113-2.29-.012-3.113-7.532-1.952-7.559-7.41-.027-4.964 4.332-6.457 8.563-6.457 2.39 0 4.617.243 5.925.86ZM130.602 93.617h-6.403l.797-3.808h17.348l-.801 3.808h-5.719l-3.176 15.516h-5.234ZM333.41 36.77h24.621V29.19H324.54V14.27h-10.851V29.19h-33.442v7.579h22.203c-4.242 16.273-12.855 29.601-23.437 37.761v8.797c16.508-8.836 28.27-23.234 34.367-46.558h.308v36.523h-16.714v7.578h16.714v15.285h10.852V80.871h16.711v-7.578h-16.71V36.77h.679c6.07 23.414 17.82 38.906 33.98 46.792V71.98c-10.207-6.289-20.234-17.289-25.789-35.21ZM258.188 52.54h-45.915V25.944h45.915Zm0 35.237h-45.915v-27.66h45.915Zm10.851-69.433h-67.605v77h67.605ZM479.531 15.879h-10.144c-1.98 18.926-7.188 30.75-13.653 36.59v8.426c3.563-1.79 6.672-4.04 9.41-6.793V96.16h9.606V37.957c2.172-6.074 3.727-13.355 4.781-22.078ZM491.707 54.879H504v9.3h-12.293Zm0-15.863H504v9.316h-12.293Zm22.063 0h12.421v9.316H513.77ZM526.19 64.18H513.77v-9.301h12.421Zm12.586 21.718c-12.328-.09-22.27-1.3-30.047-3.421 2.368-3.04 3.973-6.82 4.657-11.516h22.086V32.234H513.77V25.02h23.168v-6.91h-54.563v6.91H504v7.214h-21.574v38.727h21.11a17.607 17.607 0 0 1-4.102 8.184c-3.508-1.711-6.297-3.68-8.395-5.883h-7.34c2.508 4.066 5.797 7.605 9.91 10.527-3.793 2.172-8.636 3.754-14.449 4.707v6.883c9.13-1.531 16.844-3.54 22.64-6.984 9.54 4.257 21.91 6.43 36.977 6.43ZM396.422 40.004h5.621v9.918h-5.621Zm5.621 27.672h-5.621v-10.73h5.621Zm-14.902 0h-5.762v-10.73h5.762Zm-5.762-27.672h5.762v9.918h-5.762Zm34.047-22.926h-13.977c-4.14 3.188-10.476 4.09-30.379 4.09v6.418c6.274 0 11.559-.063 16.07-.23v5.996H369.72v6.652h3.574v9.918h-4.926v7.023h4.926v10.73h-3.574v6.653h17.422v8.8c-5.762.49-11.625.837-17.473 1.028v9.227c17.035-1.403 31.45-3.399 44.316-5.996v-7.168a572.043 572.043 0 0 1-17.562 2.074v-7.965h17.281v-6.652h-3.613v-10.73h4.781v-7.024h-4.781v-9.918h3.613v-6.652h-17.281v-6.653c10.863-1.183 15.11-3.898 19.004-9.62Zm0 0"/><path  d="M396.422 40.004h5.621v9.918h-5.621v-9.918m5.621 27.672h-5.621v-10.73h5.621v10.73m-14.902 0h-5.762v-10.73h5.762v10.73m-5.762-27.672h5.762v9.918h-5.762v-9.918m34.047-22.926h-13.977c-4.14 3.188-10.476 4.09-30.379 4.09v6.418c6.274 0 11.559-.063 16.07-.23v5.996H369.72v6.652h3.574v9.918h-4.926v7.023h4.926v10.73h-3.574v6.653h17.422v8.8c-5.762.49-11.625.837-17.473 1.028v9.227c17.035-1.403 31.45-3.399 44.316-5.996v-7.168a572.043 572.043 0 0 1-17.562 2.074v-7.965h17.281v-6.652h-3.613v-10.73h4.781v-7.024h-4.781v-9.918h3.613v-6.652h-17.281v-6.653c10.863-1.183 15.11-3.898 19.004-9.62M439.477 50.27c7.933-18.696 8.011-20.329 8.011-24.239v-7.117h-30.472V96.16h9.285V26.031h11.39c-.207 4.063-.796 6.946-6.726 24.52 6.39 9.34 7.781 13.433 7.781 18.875 0 5.172-1.016 8.398-5.992 8.398h-2.496v9.328h3.035c11.238 0 14.914-4.605 14.914-16.066 0-7.168-2.867-13.934-8.73-20.816Zm0 0"/></svg>