<svg xmlns="http://www.w3.org/2000/svg" xml:space="preserve" viewBox="0 0 2048 400"><path d="M167.318 31.987c37.218 0 67.81 8.408 91.777 25.223 23.966 16.814 36.23 41.722 36.795 74.723v5.658h-87.547v-1.886c0-9.429-3.102-17.286-9.305-23.572-6.203-6.286-15.648-9.43-28.336-9.43-12.406 0-21.922 2.044-28.548 6.13-6.626 4.085-9.94 9.114-9.94 15.086 0 8.486 4.512 14.772 13.535 18.858 9.022 4.085 23.543 8.328 43.562 12.729 23.402 5.343 42.645 10.921 57.73 16.736 15.085 5.814 28.266 15.322 39.544 28.522 11.278 13.2 17.059 31.116 17.34 53.745 0 38.344-11.63 66.788-34.891 85.331-23.262 18.544-54.347 27.815-93.257 27.815-45.395 0-80.71-8.486-105.945-25.458-25.235-16.972-37.852-46.987-37.852-90.045h88.393c0 16.343 3.806 27.265 11.419 32.765s19.455 8.25 35.526 8.25c11.842 0 21.64-1.414 29.394-4.243 7.754-2.828 11.63-8.643 11.63-17.443 0-7.858-4.3-13.75-12.899-17.68-8.6-3.928-22.627-8.092-42.082-12.493-23.684-5.657-43.28-11.55-58.787-17.679-15.508-6.129-29.042-16.265-40.602-30.408-11.56-14.143-17.34-33.315-17.34-57.516 0-35.516 12.336-61.68 37.007-78.495 24.67-16.815 55.897-25.223 93.68-25.223ZM535.662 357.97l-12.752-44.567H416.932L404.18 357.97h-99.382L415.173 41.866h113.013L638.561 357.97H535.662ZM437.16 242.647h65.522L471.02 130.081h-1.759l-32.1 112.566ZM792.785 29.782c27.913 0 53.007 4.714 75.282 14.143 22.274 9.43 39.967 23.337 53.078 41.723 13.11 18.386 19.666 40.78 19.666 67.18h-89.239c0-13.514-5.357-24.436-16.071-32.764-10.714-8.33-23.684-12.494-38.91-12.494-21.992 0-38.628 6.522-49.906 19.565-11.278 13.044-16.917 31.508-16.917 55.395v30.172c0 23.887 5.639 42.352 16.917 55.395 11.278 13.043 27.914 19.565 49.906 19.565 15.226 0 28.196-4.007 38.91-12.022 10.714-8.014 16.071-18.308 16.071-30.88h-65.977v-66.002H940.81v181.035h-48.214l-9.305-32.058c-26.503 25.143-61.184 37.715-104.041 37.715-48.214 0-84.446-14.065-108.694-42.194-24.248-28.13-36.372-70.01-36.372-125.64 0-55.002 13.745-96.724 41.236-125.168 27.49-28.444 66.612-42.666 117.364-42.666ZM1187.71 354.892l-12.931-44.26H1067.31l-12.932 44.26H953.601l111.926-313.93h114.603l111.926 313.93H1187.71Zm-99.887-114.53h66.443L1122.16 128.57h-1.784l-32.553 111.792ZM1534.699 365.692l-40.059-197.535h-1.8l-40.059 197.535h-109.374l-72.466-324.354h103.523l35.558 183.863h1.8l35.108-183.863h98.121l37.358 183.863h1.8l33.308-183.863h99.021l-72.465 324.354h-109.374ZM1931.702 361.826l-13.111-45.627h-108.964l-13.112 45.627h-102.182l113.485-323.617h116.198l113.485 323.617h-105.799Zm-101.277-118.064h67.368l-32.554-115.242h-1.809l-33.005 115.242Z"/></svg>