<svg xmlns="http://www.w3.org/2000/svg" width="900" height="459" viewBox="0 0 898 459"><path style="stroke:none;fill-rule:nonzero;fill:#000;fill-opacity:1" d="M504.266 9.523c-11.352 17.672-44.028 52.098-66.274 70-14.332 11.59-32.105 23.063-41.965 27.196-9.285 3.898-31.07 8.836-56.066 12.734-14.102 2.184-22.703 2.527-72.234 3.328-55.497.805-56.297.805-67.192 3.672-15.363 4.133-23.847 7.692-47.469 19.969-41.964 21.687-59.734 23.867-74.41 9.18-7.11-7.23-12.726-17.786-14.562-27.54-1.719-9.527-1.031-11.363 5.16-13.082 5.73-1.492 12.496-6.886 15.133-11.82 2.41-4.82 2.066-5.62-3.211-5.62-8.828 0-13.414 2.062-21.555 9.753-8.023 7.57-12.726 9.754-20.98 9.754-6.078 0-11.352 2.754-15.711 8.262-3.438 4.246-15.364 11.242-19.145 11.242-2.066 0-4.015 4.363-3.21 6.887 1.488 4.82 6.878 6.312 23.39 6.425l15.476.114 2.868 3.558c1.605 1.95 5.273 8.836 8.027 15.375 10.316 24.215 19.492 37.985 35.2 52.215 12.151 10.898 13.987 14.688 18.687 37.523 4.93 23.637 7.57 27.883 18.691 29.95 5.273 1.03 11.234-.23 11.234-2.41 0-1.723-5.617-5.051-8.484-5.051-.918 0-3.555-1.606-5.73-3.442-4.704-4.132-6.653-11.132-6.883-23.984-.114-7 .23-8.719 1.605-8.719 1.262 0 1.95 2.067 2.64 7.918.458 4.246 1.602 9.637 2.638 11.703 1.832 3.785 2.062 3.903 9.054 3.903h7.11l.687-7.344c1.492-15.723 10.32-52.555 13.645-56.688.687-.687 1.949-1.375 2.867-1.375 2.066 0 1.836 1.836-2.293 17.442-6.191 23.062-7.11 33.16-7.11 82.39v45.325l-9.972 7.46c-5.39 4.13-20.871 14.915-34.285 24.098-36.805 25.016-46.09 35.684-46.207 53.356-.114 6.543.46 8.953 2.754 13.199 4.125 7.226 7.566 7.113 11.464-.23l2.868-5.508H201.34l3.324-3.442 3.324-3.445h100.328c97.918 0 100.555-.113 103.305-2.293 2.867-2.18 1.836-2.297-166.484-2.297-105.254 0-169.461-.457-169.461-1.031 0-.688 2.406-4.36 5.5-8.38l5.39-7.226 73.266-.343 73.152-.23 4.356-3.442 4.36-3.446h99.75c97.46 0 99.753 0 102.39-2.293 2.754-2.18 1.95-2.18-170.84-2.296-159.488 0-173.363-.114-171.988-1.836.804-1.032 5.277-4.934 9.746-8.606l8.258-6.77h146.53l3.9-3.44 4.011-3.329 100.441-.117c87.942 0 100.672-.227 101.93-1.719 1.262-1.492-17.539-1.723-167.742-1.723-104.684 0-169.465-.46-169.922-1.03-.687-1.15 12.04-9.067 20.406-12.626 2.868-1.261 5.504-2.754 5.848-3.441.574-.918 20.754-1.262 67.191-1.262h66.387l3.899-3.441 4.011-3.446h100.328c87.711 0 100.438-.226 101.7-1.718 1.261-1.493-17.543-1.723-168.434-1.723-160.977 0-169.805-.113-169.805-2.066 0-1.032.914-5.047 2.063-8.836l2.062-6.883 78.313-.344 78.426-.23 3.898-3.442 3.898-3.445h100.098c87.598 0 100.324-.227 101.586-1.719 1.262-1.492-18.691-1.723-178.41-1.723-98.95 0-180.469-.46-181.274-.917-1.03-.575-.113-3.098 2.98-8.836l4.247-8.032 87.824-.343 87.715-.23 2.637-2.872 2.637-2.867h100.554c99.067 0 100.555 0 102.621-2.293 2.063-2.297 1.95-2.297-186.664-2.297-110.758 0-188.84-.46-188.84-1.031 0-.574 2.864-4.707 6.418-9.18l6.309-8.148h185.86l3.44-2.871 3.438-2.868h99.867c97.461 0 100.098-.113 102.848-2.293 2.867-2.183 1.606-2.296-191.476-2.296H218.422l9.176-9.18 9.172-9.18H426.87l3.785-2.871 3.781-2.867h99.524c92.988 0 99.754-.113 102.39-2.067 2.75-1.835-5.964-1.949-192.05-2.523l-194.922-.574 11.238-8.95 11.352-8.835h187.008l3.78-2.871 3.786-2.868h99.523c92.989 0 99.75-.113 102.387-2.066 2.754-1.836-5.844-1.95-189.183-2.524l-192.051-.574 13.758-8.949 13.644-8.836h178.063l2.636-2.871 2.637-2.867h100.559c99.062 0 100.554 0 102.617-2.293 2.062-2.297 1.949-2.297-182.996-2.297-180.469 0-184.942-.113-182.305-2.18 1.492-1.148 8.258-5.05 15.02-8.605l12.27-6.426h160.405l3.325-3.445 3.324-3.442h100.21c98.38 0 100.212 0 103.079-2.293l2.98-2.297-173.82-.23-173.82-.344 13.988-8.375 13.875-8.261h138.965l3.324-3.446 3.324-3.441h100.211c98.38 0 100.211 0 103.078-2.293l2.98-2.297-167.515-.23-167.515-.344 9.632-8.375 9.746-8.262h134.38l4.011-3.445 3.899-3.442h99.984c97.457 0 100.094-.113 102.848-2.293 2.867-2.183 1.832-2.296-165.454-2.296H464.363l6.996-8.606 7.11-8.605h141.37l3.9-3.446 4.011-3.328 100.441-.113c98.95 0 100.442 0 102.504-2.293 2.063-2.297 1.95-2.297-170.726-2.297-95.051 0-172.672-.344-172.446-.918.23-.46 2.41-4.246 4.934-8.492l4.586-7.8h155.246l3.899-3.446 4.011-3.442h100.324c87.715 0 100.442-.23 101.704-1.722 1.261-1.489-18.688-1.72-178.75-1.72-99.067 0-180.13-.343-180.13-.917 0-.461 1.606-4.59 3.669-9.18l3.671-8.261h174.508l3.325-3.446 3.324-3.441h100.554c87.946 0 100.672-.23 101.934-1.723 1.262-1.488-20.18-1.719-191.594-1.605H509.652Zm0 0"/><path style="stroke:none;fill-rule:nonzero;fill:#000;fill-opacity:1" d="M84.16 240.516c-2.066 2.297-5.847 5.164-8.37 6.312-2.638 1.149-4.704 2.637-4.704 3.211 0 2.18-6.879 9.066-9.742 9.754-3.098.805-4.016 4.82-1.492 7.344 2.18 2.18 10.89 1.61 16.168-1.145 5.273-2.754 14.902-3.215 20.75-.918 1.835.688 3.44 1.031 3.671.801.227-.113-.23-3.785-1.03-8.031l-1.263-7.688h-4.816c-6.422 0-7.223-1.61-2.867-5.625 4.472-4.246 4.816-8.144.574-8.144-1.95 0-4.36 1.375-6.879 4.129Zm0 0"/></svg>